<?xml version="1.0" encoding="UTF-8"?>
<svg id="Layer_1" data-name="Layer 1" xmlns="http://www.w3.org/2000/svg" xmlns:xlink="http://www.w3.org/1999/xlink" viewBox="0 0 226.4 226.4">
  <defs>
    <style>
      .cls-1 {
        fill: #182849;
      }

      .cls-2 {
        fill: url(#linear-gradient-2);
      }

      .cls-3 {
        fill: url(#linear-gradient-4);
      }

      .cls-4 {
        fill: url(#linear-gradient-3);
      }

      .cls-5 {
        fill: url(#linear-gradient-5);
      }

      .cls-6 {
        fill: url(#linear-gradient);
      }

      .cls-7 {
        fill: #bf8f3a;
      }
    </style>
    <linearGradient id="linear-gradient" x1="122.4" y1="145.46" x2="184.62" y2="172.84" gradientUnits="userSpaceOnUse">
      <stop offset=".12" stop-color="#bf8f3a"/>
      <stop offset=".54" stop-color="#f1d689"/>
      <stop offset=".85" stop-color="#bf8f3a"/>
    </linearGradient>
    <linearGradient id="linear-gradient-2" x1="60.67" y1="112.53" x2="117.42" y2="78.51" xlink:href="#linear-gradient"/>
    <linearGradient id="linear-gradient-3" x1="144.78" y1="127.6" x2="94.41" y2="127.89" gradientUnits="userSpaceOnUse">
      <stop offset=".15" stop-color="#bf8f3a"/>
      <stop offset=".46" stop-color="#f1d689"/>
      <stop offset=".88" stop-color="#bf8f3a"/>
    </linearGradient>
    <linearGradient id="linear-gradient-4" x1="96.71" y1="43.44" x2="109.62" y2="56.69" gradientUnits="userSpaceOnUse">
      <stop offset="0" stop-color="#bf8f3a"/>
      <stop offset=".09" stop-color="#c79b47"/>
      <stop offset=".32" stop-color="#d9b463"/>
      <stop offset=".55" stop-color="#e6c778"/>
      <stop offset=".78" stop-color="#eed284"/>
      <stop offset="1" stop-color="#f1d689"/>
    </linearGradient>
    <linearGradient id="linear-gradient-5" x1="110.04" y1="67.04" x2="130.25" y2="67.04" gradientUnits="userSpaceOnUse">
      <stop offset="0" stop-color="#f1d689"/>
      <stop offset=".22" stop-color="#eed284"/>
      <stop offset=".45" stop-color="#e6c778"/>
      <stop offset=".68" stop-color="#d9b463"/>
      <stop offset=".91" stop-color="#c79b47"/>
      <stop offset="1" stop-color="#bf8f3a"/>
    </linearGradient>
  </defs>
  <path class="cls-1" d="M168.67,96.17v3.64c0,17.31-14.03,31.34-31.34,31.34h-19.79v-12.47h12.65c9.9,0,17.92-8.02,17.92-17.92v-2.52c0-9.9-8.02-17.92-17.92-17.92h-3.76c-.99-1.9-1.55-4.05-1.55-6.34s.59-4.59,1.65-6.54c.5-.94,1.12-1.82,1.82-2.61h8.98c17.31,0,31.34,14.03,31.34,31.34Z"/>
  <path class="cls-1" d="M95.75,118.69c.13,3.77.62,8.04,1.8,12.47"/>
  <path class="cls-6" d="M185.51,180.73v1.14h-20.27c-6.67,0-12.52-3.72-17.14-9-3.13-3.58-5.71-7.87-7.58-12.19-6.1-14.05-11.66-19.13-15.86-21.75-1.95-1.22-4.05-2.16-6.23-2.89l-.89-.29v-4.59h6.68c9.21,0,16.8,1.55,23.88,8.46,4.21,4.1,8.24,10.1,12.3,18.79,2.64,5.64,5.48,9.86,8.26,13.02,8.7,9.88,16.84,9.31,16.84,9.31Z"/>
  <path class="cls-2" d="M118.21,80.32c-.2.5-.43,1.01-.68,1.53-2.92,6.11-9.16,13.33-22.33,19.01-3.84,1.66-7.34,3.04-10.51,4.25-9.72,3.7-16.38,5.75-20.57,9.07-1.6,1.26-2.85,2.72-3.77,4.51-1.52,2.97-2.15,6.88-2.04,12.47.01.59.03,1.19.06,1.82h-1.63s-.31-.66-.73-1.82c-.9-2.47-2.29-7.18-2.18-12.47.08-3.58.84-7.43,2.92-11.03,1.59-2.76,3.96-5.38,7.39-7.61,0,0,0,0,0,0,6.58-4.28,14.05-6.4,20.56-8.61,7.39-2.51,13.57-5.13,15.91-11.11,1.1-2.83,1.35-6.41.47-11.08h.67l5.86,11.08,2.43,4.6,2.87-4.6,4.62-7.42,2.29-3.66s.92,4.78-1.61,11.08Z"/>
  <path class="cls-4" d="M120.8,159.7v.98c-1.14-.64-2.22-1.31-3.26-1.99-11.83-7.78-17.47-18.04-19.99-27.53-1.18-4.43-1.67-8.7-1.8-12.47-.27-8.32,1.25-14.24,1.25-14.24,10.92-4.41,16.55-9.62,16.55-9.62l-.25,30.48c-.08,2.06-.1,4-.06,5.84.21,11.26,2.35,18.64,4.3,23.06,1.7,3.87,3.26,5.49,3.26,5.49Z"/>
  <path class="cls-1" d="M97.21,73.98c0,2.29-.56,4.44-1.54,6.34h-10.97v7.05c-.4.14-.81.29-1.23.43-.89.3-1.81.61-2.74.91-5.24,1.73-11.1,3.66-16.6,6.84v-20.72c0-4.08-3.31-7.39-7.39-7.39v-2.61h34.39c1.83,0,3.56.97,4.43,2.59,0,0,0,.02.01.03,1.05,1.95,1.64,4.17,1.64,6.54Z"/>
  <path class="cls-1" d="M94.12,179.27v2.6h-37.38v-2.6h0c4.08,0,7.39-3.31,7.39-7.39v-49.85c0-1.88.86-3.66,2.34-4.83l.03-.02c2.93-2.32,7.72-4.09,14.36-6.55,1.46-.54,2.99-1.11,4.62-1.72h6.58v9.78h-7.36v53.19c0,4.08,3.31,7.39,7.39,7.39h2.04Z"/>
  <g>
    <polygon class="cls-3" points="110.04 36.15 104.01 50.5 89.83 57.34 110.04 57.34 110.04 36.15"/>
    <polygon class="cls-7" points="89.83 57.34 102.54 62.56 110.04 76.74 110.04 57.34 89.83 57.34"/>
    <polygon class="cls-5" points="110.04 76.74 117.54 62.56 130.25 57.34 110.04 57.34 110.04 76.74"/>
    <polygon class="cls-7" points="110.04 36.15 110.04 57.34 130.25 57.34 116.07 50.5 110.04 36.15"/>
  </g>
</svg>