<?xml version="1.0" encoding="UTF-8"?>
<svg id="Layer_1" xmlns="http://www.w3.org/2000/svg" version="1.1" xmlns:xlink="http://www.w3.org/1999/xlink" viewBox="0 0 686.1 206.4">
  <!-- Generator: Adobe Illustrator 29.5.1, SVG Export Plug-In . SVG Version: 2.1.0 Build 141)  -->
  <defs>
    <style>
      .st0 {
        fill: url(#linear-gradient2);
      }

      .st1 {
        fill: #182849;
      }

      .st2 {
        fill: url(#linear-gradient1);
      }

      .st3 {
        fill: url(#linear-gradient4);
      }

      .st4 {
        fill: url(#linear-gradient5);
      }

      .st5 {
        fill: url(#linear-gradient3);
      }

      .st6 {
        fill: url(#linear-gradient6);
      }

      .st7 {
        fill: url(#linear-gradient);
      }

      .st8 {
        fill: #bf8f3a;
      }
    </style>
    <linearGradient id="linear-gradient" x1="107.9" y1="67.3" x2="170.1" y2="40" gradientTransform="translate(0 207) scale(1 -1)" gradientUnits="userSpaceOnUse">
      <stop offset=".1" stop-color="#bf8f3a"/>
      <stop offset=".5" stop-color="#f1d689"/>
      <stop offset=".8" stop-color="#bf8f3a"/>
    </linearGradient>
    <linearGradient id="linear-gradient1" x1="46.2" y1="100.3" x2="103" y2="134.3" gradientTransform="translate(0 207) scale(1 -1)" gradientUnits="userSpaceOnUse">
      <stop offset=".1" stop-color="#bf8f3a"/>
      <stop offset=".5" stop-color="#f1d689"/>
      <stop offset=".8" stop-color="#bf8f3a"/>
    </linearGradient>
    <linearGradient id="linear-gradient2" x1="130.3" y1="85.2" x2="79.9" y2="84.9" gradientTransform="translate(0 207) scale(1 -1)" gradientUnits="userSpaceOnUse">
      <stop offset=".2" stop-color="#bf8f3a"/>
      <stop offset=".5" stop-color="#f1d689"/>
      <stop offset=".9" stop-color="#bf8f3a"/>
    </linearGradient>
    <linearGradient id="linear-gradient3" x1="82.2" y1="169.4" x2="95.1" y2="156.1" gradientTransform="translate(0 207) scale(1 -1)" gradientUnits="userSpaceOnUse">
      <stop offset="0" stop-color="#bf8f3a"/>
      <stop offset="0" stop-color="#c79b47"/>
      <stop offset=".3" stop-color="#d9b463"/>
      <stop offset=".6" stop-color="#e6c778"/>
      <stop offset=".8" stop-color="#eed284"/>
      <stop offset="1" stop-color="#f1d689"/>
    </linearGradient>
    <linearGradient id="linear-gradient4" x1="95.6" y1="145.8" x2="115.8" y2="145.8" gradientTransform="translate(0 207) scale(1 -1)" gradientUnits="userSpaceOnUse">
      <stop offset="0" stop-color="#f1d689"/>
      <stop offset=".2" stop-color="#eed284"/>
      <stop offset=".5" stop-color="#e6c778"/>
      <stop offset=".7" stop-color="#d9b463"/>
      <stop offset=".9" stop-color="#c79b47"/>
      <stop offset="1" stop-color="#bf8f3a"/>
    </linearGradient>
    <linearGradient id="linear-gradient5" x1="394.6" y1="129.1" x2="404" y2="119.4" gradientTransform="translate(0 207) scale(1 -1)" gradientUnits="userSpaceOnUse">
      <stop offset="0" stop-color="#bf8f3a"/>
      <stop offset="0" stop-color="#c79b47"/>
      <stop offset=".3" stop-color="#d9b463"/>
      <stop offset=".6" stop-color="#e6c778"/>
      <stop offset=".8" stop-color="#eed284"/>
      <stop offset="1" stop-color="#f1d689"/>
    </linearGradient>
    <linearGradient id="linear-gradient6" x1="404.4" y1="111.9" x2="419.1" y2="111.9" gradientTransform="translate(0 207) scale(1 -1)" gradientUnits="userSpaceOnUse">
      <stop offset="0" stop-color="#f1d689"/>
      <stop offset=".2" stop-color="#eed284"/>
      <stop offset=".5" stop-color="#e6c778"/>
      <stop offset=".7" stop-color="#d9b463"/>
      <stop offset=".9" stop-color="#c79b47"/>
      <stop offset="1" stop-color="#bf8f3a"/>
    </linearGradient>
  </defs>
  <g>
    <path class="st1" d="M154.2,90.4v3.6c0,17.3-14,31.3-31.3,31.3h-19.8v-12.5h12.7c9.9,0,17.9-8,17.9-17.9v-2.5c0-9.9-8-17.9-17.9-17.9h-3.8c-1-1.9-1.6-4.1-1.6-6.3s.6-4.6,1.6-6.5c.5-.9,1.1-1.8,1.8-2.6h9c17.3,0,31.3,14,31.3,31.3Z"/>
    <path class="st1" d="M81.3,112.9c.1,3.8.6,8,1.8,12.5"/>
    <path class="st7" d="M171,174.9v1.1h-20.3c-6.7,0-12.5-3.7-17.1-9-3.1-3.6-5.7-7.9-7.6-12.2-6.1-14.1-11.7-19.1-15.9-21.8-1.9-1.2-4.1-2.2-6.2-2.9l-.9-.3v-4.6h6.7c9.2,0,16.8,1.6,23.9,8.5,4.2,4.1,8.2,10.1,12.3,18.8,2.6,5.6,5.5,9.9,8.3,13,8.7,9.9,16.8,9.3,16.8,9.3h0Z"/>
    <path class="st2" d="M103.7,74.5c-.2.5-.4,1-.7,1.5-2.9,6.1-9.2,13.3-22.3,19-3.8,1.7-7.3,3-10.5,4.2-9.7,3.7-16.4,5.8-20.6,9.1-1.6,1.3-2.8,2.7-3.8,4.5-1.5,3-2.2,6.9-2,12.5,0,.6,0,1.2,0,1.8h-1.6s-.3-.7-.7-1.8c-.9-2.5-2.3-7.2-2.2-12.5,0-3.6.8-7.4,2.9-11,1.6-2.8,4-5.4,7.4-7.6h0c6.6-4.3,14.1-6.4,20.6-8.6,7.4-2.5,13.6-5.1,15.9-11.1,1.1-2.8,1.3-6.4.5-11.1h.7l5.9,11.1,2.4,4.6,2.9-4.6,4.6-7.4,2.3-3.7s.9,4.8-1.6,11.1h0Z"/>
    <path class="st0" d="M106.3,153.9v1c-1.1-.6-2.2-1.3-3.3-2-11.8-7.8-17.5-18-20-27.5-1.2-4.4-1.7-8.7-1.8-12.5-.3-8.3,1.2-14.2,1.2-14.2,10.9-4.4,16.6-9.6,16.6-9.6l-.2,30.5c0,2.1,0,4,0,5.8.2,11.3,2.3,18.6,4.3,23.1,1.7,3.9,3.3,5.5,3.3,5.5h0Z"/>
    <path class="st1" d="M82.7,68.2c0,2.3-.6,4.4-1.5,6.3h-11v7.1c-.4.1-.8.3-1.2.4-.9.3-1.8.6-2.7.9-5.2,1.7-11.1,3.7-16.6,6.8v-20.7c0-4.1-3.3-7.4-7.4-7.4v-2.6h34.4c1.8,0,3.6,1,4.4,2.6,0,0,0,0,0,0,1.1,1.9,1.6,4.2,1.6,6.5h0Z"/>
    <path class="st1" d="M79.6,173.5v2.6h-37.4v-2.6h0c4.1,0,7.4-3.3,7.4-7.4v-49.8c0-1.9.9-3.7,2.3-4.8h0c2.9-2.3,7.7-4.1,14.4-6.6,1.5-.5,3-1.1,4.6-1.7h6.6v9.8h-7.4v53.2c0,4.1,3.3,7.4,7.4,7.4h2,0Z"/>
    <g>
      <polygon class="st5" points="95.6 30.3 89.5 44.7 75.3 51.5 95.6 51.5 95.6 30.3"/>
      <polygon class="st8" points="75.3 51.5 88.1 56.7 95.6 70.9 95.6 51.5 75.3 51.5"/>
      <polygon class="st3" points="95.6 70.9 103.1 56.7 115.8 51.5 95.6 51.5 95.6 70.9"/>
      <polygon class="st8" points="95.6 30.3 95.6 51.5 115.8 51.5 101.6 44.7 95.6 30.3"/>
    </g>
  </g>
  <g>
    <g>
      <path class="st1" d="M265.7,157.2h-22.4l-19.5-27.1c-2.1-3-3.4-3.7-6.8-3.7v22.1c0,3.5,2.8,6.2,6.2,6.2v2.5h-28.9v-2.5c3.9,0,7.4-3.2,7.4-7.3v-51.8c0-4.2-3.5-7.4-7.4-7.4v-2.4h36.8c15.6,0,22.5,8.6,22.5,18.3,0,14.3-10.1,19.6-15.4,21v.3l19.3,24.4c3,3.8,4.9,4.8,8.1,4.8v2.5h0ZM225,90h-1.3c-4.3,0-6.6,2.5-6.6,7.1v25.3l7.6-.2c8.2-.2,13.2-6.7,13.2-15.5s-3.3-16.7-12.9-16.7h0Z"/>
      <path class="st1" d="M323.7,151.8c-2.4,3.9-6.2,6.3-11.6,6.3s-8.3-3.1-9.4-6.8h-.4c-4.7,3.7-11,6.8-16.9,6.8s-14.5-3.7-14.5-12.6c0-13,17.1-16.4,31.8-18.6v-5.6c0-5.6-2.6-10-9.1-10s-7.5,2-7.5,3.9.3,2,.6,3.3c.8,3.9-1.2,8.1-6.7,8.1s-7-3-7-7.2c0-7.1,8.1-12.2,21.6-12.2s22.4,3.5,22.4,16.4v23.6c0,4.5,1.8,7.6,5.2,3,.7-1,1.7-.3,1.7.7s-.1.7-.3,1ZM302.6,130.2c-6.9,1-16.8,4.8-16.8,13.4s2.7,7.6,6.7,7.6,10.1-4.6,10.1-6.1v-14.9Z"/>
      <path class="st1" d="M385.7,157.2h-16.3c-2.7-2-3.1-7.3-3.1-7.3h-.3c-2.1,3-7,8.2-16,8.2-12.8,0-20.7-9-20.7-23.7s9.3-27.3,22.4-27.3,11.5,2.7,14.2,5.9h.3v-21.7c0-3.7-1.6-5.7-4.9-5.7v-2.5h19.4v65.9c0,3.7,1.6,5.7,4.9,5.7v2.5h0ZM354.9,112.3c-8.2,0-10.8,9.7-10.8,21.1s4.2,19.8,10.2,19.8,11.9-8.8,11.9-20.5-3.4-20.4-11.4-20.4h0Z"/>
      <path class="st1" d="M416.5,157.2h-24.2v-2.5c3.4,0,4.8-2.3,4.8-5.7v-32.7c0-3.7-1.6-5.7-4.9-5.7v-2.5h19.4v40.9c0,3.4,1.5,5.7,4.9,5.7v2.5Z"/>
      <path class="st1" d="M476.7,151.8c-2.4,3.9-6.2,6.3-11.6,6.3s-8.3-3.1-9.4-6.8h-.4c-4.7,3.7-11,6.8-16.9,6.8s-14.5-3.7-14.5-12.6c0-13,17.1-16.4,31.8-18.6v-5.6c0-5.6-2.6-10-9.1-10s-7.5,2-7.5,3.9.3,2,.6,3.3c.8,3.9-1.2,8.1-6.7,8.1s-7-3-7-7.2c0-7.1,8.1-12.2,21.6-12.2s22.4,3.5,22.4,16.4v23.6c0,4.5,1.8,7.6,5.2,3,.7-1,1.7-.3,1.7.7s-.1.7-.3,1ZM455.6,130.2c-6.9,1-16.8,4.8-16.8,13.4s2.7,7.6,6.7,7.6,10.1-4.6,10.1-6.1v-14.9Z"/>
      <path class="st1" d="M538.2,157.2h-23.3v-2.6c2.8,0,4-2,4-4.7v-27.2c0-4.5-2.6-8.5-8-8.5s-10,4.5-10,10.3v25.4c0,2.8,1.1,4.7,3.9,4.7v2.6h-23v-2.6c3.4,0,4.6-2.3,4.6-5.7v-32.7c0-3.7-1.5-5.6-4.8-5.6v-2.5h19.4v6.3h.2c3.2-3.8,9.4-7.4,16.6-7.4s15.7,3.6,15.7,15.5v26.3c0,3.5,1.4,5.7,4.8,5.7v2.6h0Z"/>
      <path class="st1" d="M591.3,148.6c-4.1,7-15.1,9.6-20.5,9.6-15.2,0-25.3-7.7-25.3-25.3s11.5-25.8,26.9-25.8,18.2,6,18.2,12.4-3.3,7.6-7.1,7.6-6.9-4.1-6.1-8.2c.2-1.3.5-2.6.5-3.4,0-2.4-1.3-4.3-5.6-4.3s-12,5.6-12,20.7,7.4,21.2,14.4,21.2,10.7-2.6,14.4-6.3c1.1-1.1,2.4-.2,2.4,1s-.1.5-.3.8h0Z"/>
      <path class="st1" d="M612.2,131.2c0,13.6,5.7,21.7,15.7,21.7s12.2-3.4,16.1-7.2c1-1,2.4-.2,2.4.9s-.1.6-.3.9c-2.4,3.7-9.1,10.7-22,10.7s-26.7-6.6-26.7-25.6,12-25.5,26.3-25.5,23.1,8,23.1,24.1h-34.5,0ZM631.8,127.1c0-11.7-2.4-15.9-8.5-15.9s-10.9,5.8-11.2,15.9h19.7,0Z"/>
    </g>
    <g>
      <polygon class="st4" points="404.4 72.5 400 83 389.6 88 404.4 88 404.4 72.5"/>
      <polygon class="st8" points="389.6 88 398.9 91.8 404.4 102.2 404.4 88 389.6 88"/>
      <polygon class="st6" points="404.4 102.2 409.8 91.8 419.1 88 404.4 88 404.4 102.2"/>
      <polygon class="st8" points="404.4 72.5 404.4 88 419.1 88 408.8 83 404.4 72.5"/>
    </g>
  </g>
</svg>